HIERARCHY
ROOT Hips
{
 OFFSET 0.000000 0.000000 0.000000
 CHANNELS 6 Xposition Yposition Zposition Yrotation Xrotation Zrotation
 JOINT Chest
 {
  OFFSET 0.000000 9.588913 -0.003946
  CHANNELS 3 Yrotation Xrotation Zrotation
  JOINT Chest2
  {
   OFFSET 0.000000 9.541882 0.008053
   CHANNELS 3 Yrotation Xrotation Zrotation
   JOINT Chest3
   {
    OFFSET 0.000000 9.501360 0.000000
    CHANNELS 3 Yrotation Xrotation Zrotation
    JOINT Chest4
    {
     OFFSET 0.000000 9.491660 0.000000
     CHANNELS 3 Yrotation Xrotation Zrotation
     JOINT Neck
     {
      OFFSET 0.000000 14.331917 0.000000
      CHANNELS 3 Yrotation Xrotation Zrotation
      JOINT Head
      {
       OFFSET 0.000000 8.884799 0.017034
       CHANNELS 3 Yrotation Xrotation Zrotation
       End Site
       {
        OFFSET 0.000000 16.896195 0.008993
       }
      }
     }
     JOINT RightCollar
     {
      OFFSET -2.923010 9.499495 0.000000
      CHANNELS 3 Yrotation Xrotation Zrotation
      JOINT RightShoulder
      {
       OFFSET -13.795216 0.000000 0.000000
       CHANNELS 3 Yrotation Xrotation Zrotation
       JOINT RightElbow
       {
        OFFSET -30.272209 0.000000 0.000000
        CHANNELS 3 Yrotation Xrotation Zrotation
        JOINT RightWrist
        {
         OFFSET -24.478199 0.000000 0.000000
         CHANNELS 3 Yrotation Xrotation Zrotation
         End Site
         {
          OFFSET -18.090752 0.000000 0.000000
         }
        }
       }
      }
     }
     JOINT LeftCollar
     {
      OFFSET 2.923010 9.499495 0.000000
      CHANNELS 3 Yrotation Xrotation Zrotation
      JOINT LeftShoulder
      {
       OFFSET 13.795216 0.000000 0.000000
       CHANNELS 3 Yrotation Xrotation Zrotation
       JOINT LeftElbow
       {
        OFFSET 30.272209 0.000000 0.000000
        CHANNELS 3 Yrotation Xrotation Zrotation
        JOINT LeftWrist
        {
         OFFSET 24.478199 0.000000 0.000000
         CHANNELS 3 Yrotation Xrotation Zrotation
         End Site
         {
          OFFSET 18.090752 0.000000 0.000000
         }
        }
       }
      }
     }
    }
   }
  }
 }
 JOINT RightHip
 {
  OFFSET -7.826875 0.019532 0.001973
  CHANNELS 3 Yrotation Xrotation Zrotation
  JOINT RightKnee
  {
   OFFSET 0.000000 -40.546152 -0.001885
   CHANNELS 3 Yrotation Xrotation Zrotation
   JOINT RightAnkle
   {
    OFFSET 0.000000 -39.417092 -0.003189
    CHANNELS 3 Yrotation Xrotation Zrotation
    JOINT RightToe
    {
     OFFSET 0.000000 -7.579396 17.243563
     CHANNELS 3 Yrotation Xrotation Zrotation
     End Site
     {
      OFFSET 0.000000 -1.500329 6.694466
     }
    }
   }
  }
 }
 JOINT LeftHip
 {
  OFFSET 7.826875 0.019532 0.001973
  CHANNELS 3 Yrotation Xrotation Zrotation
  JOINT LeftKnee
  {
   OFFSET 0.000000 -40.546152 -0.001885
   CHANNELS 3 Yrotation Xrotation Zrotation
   JOINT LeftAnkle
   {
    OFFSET 0.000000 -39.417092 -0.003189
    CHANNELS 3 Yrotation Xrotation Zrotation
    JOINT LeftToe
    {
     OFFSET 0.000000 -7.579396 17.243563
     CHANNELS 3 Yrotation Xrotation Zrotation
     End Site
     {
      OFFSET 0.000000 -1.500329 6.694466
     }
    }
   }
  }
 }
}
MOTION
Frames: 15
Frame Time: 0.008333
6.933974 84.089293 10.079671 24.470529 10.718123 13.705237 -4.019435 11.711940 3.364664 -2.471354 6.749262 2.019520 -3.056945 8.449396 2.482723 -2.471364 6.749259 2.019521 10.702045 19.214738 -18.247623 17.478985 -2.367986 -24.920518 11.558998 4.364672 -15.198468 -0.964008 -71.727167 83.309188 118.346251 -14.571955 1.479860 15.471273 -4.913378 -22.834980 -21.235793 -8.137816 2.024922 -1.955209 -42.730882 -77.514864 -60.187021 4.714758 -24.569926 -19.925029 -3.422384 16.790037 2.089730 -46.218298 -20.979384 9.609311 50.748215 8.744806 11.514489 -9.697536 7.758105 -0.014131 -4.907349 -8.155127 15.085756 -13.735985 13.126775 -3.674081 15.136905 1.386260 -14.941391 15.293750 -24.910246 1.446234 -26.337553 -6.354807
6.944774 84.067378 10.124850 24.870181 10.413617 13.728997 -4.064375 11.797855 3.393194 -2.469890 6.767452 2.060986 -3.054262 8.472390 2.534569 -2.469903 6.767447 2.060986 10.547359 19.194525 -18.300885 17.297989 -2.410995 -24.940153 11.812146 4.785797 -14.731158 -2.845999 -71.242663 86.315043 116.695991 -13.018983 0.993037 15.993188 -3.879530 -23.767089 -21.329289 -8.350633 1.760942 -1.424800 -43.029571 -79.705383 -57.254088 6.037347 -22.442594 -20.338530 -3.159181 15.180990 1.974231 -46.031376 -20.987114 9.733765 51.060786 8.808973 11.156133 -9.669192 7.681733 0.082143 -5.529521 -8.505869 14.832899 -14.050481 13.116708 -3.661075 16.071753 1.332886 -14.942078 14.599345 -24.642886 1.325603 -25.501521 -6.248735
6.957457 84.040658 10.169227 25.291609 10.079938 13.714315 -4.106363 11.884240 3.450956 -2.468394 6.785542 2.108732 -3.051415 8.495298 2.594282 -2.468407 6.785537 2.108733 10.382928 19.179380 -18.361416 17.106760 -2.447561 -24.966169 11.997288 5.252513 -14.245556 -4.305241 -70.834997 88.696502 114.632838 -11.569337 0.648603 16.656837 -2.940666 -24.974446 -21.486905 -8.507438 1.515723 -0.762091 -43.418230 -81.994394 -54.030270 7.367319 -20.128302 -20.779547 -2.865170 13.915640 1.803451 -45.826216 -20.962355 9.845234 51.393153 8.892745 10.813303 -9.640504 7.616442 0.197302 -6.111463 -8.781196 14.586745 -14.387308 13.139634 -3.625364 17.035981 1.300012 -14.969636 13.925426 -24.546835 1.174780 -24.688193 -5.989310
6.968990 84.009767 10.209569 25.722460 9.750522 13.657169 -4.114630 11.938639 3.544934 -2.460998 6.798476 2.162797 -3.041078 8.511772 2.662048 -2.461010 6.798476 2.162798 10.204095 19.181462 -18.418048 16.894967 -2.465885 -24.980847 12.065759 5.729336 -13.783145 -5.621917 -70.470737 90.759864 112.129039 -10.437368 0.583551 17.490528 -2.215410 -26.375863 -21.743282 -8.587061 1.305395 0.026165 -43.914265 -84.378603 -50.462955 8.691469 -17.621008 -21.400828 -2.710399 13.067073 1.578533 -45.635881 -20.892233 9.943545 51.737373 8.980114 10.539752 -9.640774 7.564960 0.308053 -6.620553 -9.007979 14.354773 -14.785871 13.188948 -3.564499 18.058986 1.287225 -14.980929 13.254481 -24.584737 1.014399 -23.876943 -5.616677
6.981950 83.974332 10.249665 26.175202 9.399861 13.569392 -4.104358 11.977169 3.665911 -2.442941 6.800934 2.222186 -3.017332 8.515125 2.736742 -2.442947 6.800941 2.222189 10.008998 19.222388 -18.456827 16.654500 -2.442364 -24.963149 11.990510 6.189390 -13.374323 -7.051317 -70.082624 92.707941 109.227701 -9.881121 0.945932 18.582897 -1.732519 -27.838618 -22.116176 -8.587240 1.132373 0.907493 -44.529930 -86.852839 -46.439346 9.772891 -14.943253 -22.166581 -2.765827 12.530216 1.272330 -45.435853 -20.776076 10.031999 52.081648 9.060761 10.307399 -9.613668 7.514680 0.446755 -7.103295 -9.181886 14.113686 -15.216892 13.261204 -3.471696 19.127839 1.287769 -14.951916 12.636461 -24.694539 0.856454 -23.083508 -5.196225
6.997243 83.935752 10.285797 26.639774 9.055175 13.467523 -4.074424 11.975408 3.788052 -2.417829 6.789907 2.283491 -2.984780 8.501583 2.814038 -2.417828 6.789915 2.283493 9.812089 19.320379 -18.465568 16.399120 -2.354159 -24.900605 11.804247 6.606711 -13.036175 -8.804982 -69.596332 94.677076 105.956893 -10.015845 1.870602 20.078794 -1.354571 -29.134846 -22.565071 -8.521762 0.984632 1.822991 -45.311625 -89.365904 -41.832183 10.299190 -12.150073 -23.007011 -2.998174 12.202319 0.913262 -45.235073 -20.634593 10.100769 52.410012 9.131348 10.101033 -9.641235 7.494120 0.548630 -7.488869 -9.338093 13.875247 -15.703491 13.331943 -3.342648 20.259156 1.296290 -14.852646 12.065733 -24.818386 0.729092 -22.289214 -4.786692
7.016586 83.894071 10.320366 27.122402 8.702211 13.356108 -4.062089 11.958348 3.885867 -2.398160 6.768623 2.340004 -2.959190 8.475210 2.885281 -2.398154 6.768622 2.340003 9.643421 19.472887 -18.435830 16.165011 -2.200792 -24.792639 11.581189 6.955259 -12.789028 -10.799352 -69.011020 96.609027 102.299646 -10.695646 3.376115 22.040421 -0.864797 -29.999881 -23.004121 -8.433650 0.850201 2.745053 -46.326537 -91.819223 -36.601164 10.112801 -9.321418 -23.987347 -3.419929 12.067738 0.505424 -45.007946 -20.478031 10.130754 52.714015 9.183921 9.881077 -9.707321 7.502187 0.621694 -7.801291 -9.474505 13.626594 -16.225940 13.397647 -3.181980 21.443502 1.315196 -14.661858 11.569170 -24.916713 0.640420 -21.509394 -4.433818
7.039076 83.849321 10.355162 27.612524 8.340022 13.221309 -4.090676 11.947019 3.951874 -2.398416 6.745320 2.383642 -2.958812 8.446347 2.940036 -2.398411 6.745308 2.383637 9.533507 19.658412 -18.367509 15.992426 -2.003702 -24.651188 11.399108 7.201962 -12.644850 -12.539748 -68.413501 98.098666 98.264673 -11.685302 5.291362 24.329727 -0.264898 -30.302389 -23.353981 -8.385951 0.728341 3.684246 -47.582336 -94.123348 -30.887816 9.171586 -6.522692 -25.095251 -3.991054 12.131588 0.058319 -44.749186 -20.297790 10.123362 52.991739 9.217459 9.680676 -9.809142 7.520943 0.680961 -8.045592 -9.586932 13.385913 -16.782404 13.472508 -3.012775 22.674983 1.353444 -14.407081 11.141473 -24.999939 0.583652 -20.768464 -4.131973
7.064472 83.802154 10.390949 28.093367 7.971954 13.052482 -4.177810 11.954879 3.984220 -2.432691 6.728684 2.408573 -3.001349 8.425919 2.970701 -2.432688 6.728672 2.408572 9.505482 19.848219 -18.271055 15.915600 -1.792406 -24.500153 11.340017 7.314541 -12.598045 -13.511956 -67.916289 98.649873 93.896005 -12.872713 7.403641 26.673395 0.193806 -30.186133 -23.561040 -8.433265 0.615557 4.562595 -48.979456 -96.170425 -24.998715 7.523291 -3.728664 -26.137458 -4.579937 12.303755 -0.413763 -44.462347 -20.082078 10.104679 53.241924 9.246559 9.494710 -9.930118 7.544668 0.733558 -8.238965 -9.676379 13.191770 -17.366734 13.569423 -2.880521 23.932908 1.407937 -14.129983 10.765208 -25.093401 0.537823 -20.088640 -3.849729
7.096193 83.753940 10.428945 28.567918 7.583070 12.858389 -4.347906 12.004807 3.975758 -2.506887 6.724264 2.413831 -3.094178 8.420893 2.975931 -2.506886 6.724265 2.413843 9.557632 20.014829 -18.166034 15.939741 -1.597304 -24.366881 11.441736 7.271800 -12.645051 -13.528436 -67.586464 98.038666 89.247533 -14.226382 9.630639 28.795546 0.333038 -30.029723 -23.612534 -8.607686 0.513861 5.104385 -50.357372 -97.723974 -19.347421 5.332120 -0.848283 -26.866537 -5.055290 12.409754 -0.900207 -44.141634 -19.842031 10.092063 53.467454 9.281996 9.288445 -10.045397 7.572984 0.786778 -8.405326 -9.740510 13.052993 -17.963084 13.684519 -2.810078 25.224531 1.472973 -13.864244 10.385713 -25.181672 0.499277 -19.455189 -3.585147
7.128874 83.707054 10.461624 29.001499 7.238844 12.620676 -4.531524 12.048738 3.955792 -2.609577 6.734345 2.402499 -3.222920 8.434058 2.959775 -2.609576 6.734360 2.402525 9.652952 20.137081 -18.073327 16.025244 -1.447033 -24.267771 11.660774 7.060053 -12.778871 -12.458962 -67.421870 96.137982 84.434599 -15.684884 11.914296 30.542216 0.157740 -30.249549 -23.563774 -8.913470 0.463474 4.935662 -51.567854 -98.441224 -14.327131 2.808487 2.124836 -27.156672 -5.342438 12.363722 -1.361665 -43.854308 -19.560182 10.073368 53.677585 9.313814 9.097123 -10.116188 7.596974 0.830298 -8.584129 -9.780404 13.008775 -18.603581 13.821188 -2.777689 26.490048 1.546855 -13.638254 10.063370 -25.218949 0.452517 -18.887278 -3.377059
7.166352 83.663545 10.488917 29.408636 6.926367 12.357065 -4.711126 12.100704 3.922612 -2.718496 6.759441 2.380505 -3.359590 8.465941 2.930052 -2.718495 6.759459 2.380541 9.738133 20.201527 -18.010086 16.110265 -1.364537 -24.208107 11.925761 6.682446 -12.973236 -9.870811 -67.342435 92.549793 79.696369 -17.253180 14.072509 31.961528 -0.281604 -31.015999 -23.509809 -9.324521 0.526264 3.943999 -52.517023 -98.172800 -10.124151 0.188963 5.005662 -27.120561 -5.497818 12.253748 -1.814036 -43.600450 -19.254456 10.019982 53.880592 9.318844 8.943257 -10.132145 7.603495 0.870531 -8.786014 -9.790250 13.006359 -19.273012 13.975613 -2.736987 27.743442 1.638026 -13.481983 9.773158 -25.205638 0.409641 -18.365474 -3.221694
7.210676 83.625517 10.509136 29.793856 6.648499 12.081677 -4.858508 12.160822 3.877938 -2.811993 6.796946 2.352941 -3.477004 8.513182 2.893547 -2.811995 6.796961 2.352979 9.774203 20.207836 -17.983935 16.147551 -1.355891 -24.184633 12.177874 6.165996 -13.192066 -5.417331 -67.159645 86.955406 75.310238 -19.117281 15.973425 33.186354 -0.923889 -32.142032 -23.526556 -9.772670 0.751447 2.484054 -53.184260 -97.182247 -6.720470 -2.264907 7.440523 -26.990781 -5.647757 12.265030 -2.273155 -43.388632 -18.933542 9.911653 54.079876 9.277980 8.837476 -10.092769 7.598260 0.901597 -9.015987 -9.779271 13.009280 -19.960754 14.142648 -2.662641 28.973068 1.749214 -13.397888 9.528496 -25.181034 0.368427 -17.892261 -3.085117
7.260701 83.594713 10.518931 30.138757 6.430180 11.798648 -4.931506 12.201683 3.833467 -2.875323 6.841305 2.323055 -3.556665 8.568779 2.854635 -2.875330 6.841317 2.323088 9.747754 20.174556 -17.992956 16.118451 -1.400717 -24.189222 12.372462 5.543519 -13.413770 0.666576 -66.623933 79.622394 71.445840 -21.457744 17.632680 34.239702 -1.719702 -33.267766 -23.637014 -10.170635 1.138640 1.101924 -53.606432 -95.949479 -4.099420 -4.341497 9.091652 -26.906098 -5.819862 12.505791 -2.724050 -43.239176 -18.599105 9.764823 54.271258 9.199410 8.787279 -10.009908 7.595775 0.910935 -9.265907 -9.765561 13.024671 -20.668311 14.317667 -2.571348 30.146698 1.869064 -13.364541 9.360007 -25.194120 0.320885 -17.480785 -2.927460
7.322670 83.571284 10.525260 30.464820 6.208639 11.529144 -4.965390 12.260345 3.780034 -2.903563 6.885783 2.293801 -3.592384 8.624317 2.817166 -2.903574 6.885797 2.293825 9.663950 20.132688 -18.029990 16.025706 -1.460550 -24.212586 12.487476 4.851747 -13.641027 7.563126 -65.572453 71.402804 68.135186 -24.187876 19.094762 35.089000 -2.707407 -34.147203 -23.795943 -10.452803 1.623076 0.139525 -53.831739 -94.850234 -2.328592 -5.871620 9.899256 -26.853235 -5.923546 12.866266 -3.172540 -43.088283 -18.282847 9.633425 54.442863 9.120435 8.732356 -9.886019 7.600191 0.932762 -9.530527 -9.743277 13.015398 -21.341551 14.496794 -2.503412 31.284833 1.983564 -13.361790 9.230456 -25.285009 0.278597 -17.116485 -2.713174
